<?xml version="1.0" standalone="no"?>
<!DOCTYPE svg PUBLIC "-//W3C//DTD SVG 20010904//EN"
 "http://www.w3.org/TR/2001/REC-SVG-20010904/DTD/svg10.dtd">
<svg version="1.0" xmlns="http://www.w3.org/2000/svg"
 width="1769.000000pt" height="1769.000000pt" viewBox="0 0 1769.000000 1769.000000"
 preserveAspectRatio="xMidYMid meet">
<metadata>
Created by potrace 1.11, written by Peter Selinger 2001-2013
</metadata>
<g transform="translate(0.000000,1769.000000) scale(0.100000,-0.100000)"
fill="#000000" stroke="none">
<path d="M8563 17521 c-88 -23 -189 -103 -250 -199 -37 -57 -106 -202 -97
-202 2 0 0 -10 -7 -21 -11 -22 -53 -168 -64 -224 -8 -42 -52 -302 -60 -350 -3
-22 -8 -51 -10 -65 -12 -73 -38 -276 -43 -350 -9 -113 -9 -532 0 -645 7 -86
34 -283 43 -315 2 -8 6 -26 9 -40 40 -222 129 -488 227 -683 90 -176 83 -151
60 -216 -21 -60 -66 -219 -75 -261 -3 -14 -7 -34 -9 -45 -7 -30 -16 -85 -22
-130 -4 -22 -9 -51 -12 -65 -12 -57 -11 -448 2 -551 35 -276 88 -452 248 -819
76 -176 188 -413 220 -465 141 -235 241 -358 479 -594 l98 -96 -44 -70 c-87
-141 -163 -282 -250 -460 -85 -173 -108 -222 -165 -360 -23 -55 -46 -109 -51
-120 -53 -126 -212 -603 -235 -710 -2 -11 -18 -76 -35 -145 -28 -112 -59 -252
-75 -335 -14 -73 -56 -324 -60 -359 -2 -21 -7 -57 -10 -80 -13 -96 -15 -114
-21 -180 -24 -259 -29 -383 -29 -696 1 -272 4 -369 20 -545 15 -181 21 -235
35 -330 5 -33 12 -78 15 -100 3 -23 7 -52 10 -65 3 -13 7 -42 11 -65 45 -312
197 -854 338 -1209 l55 -138 -112 7 c-62 3 -125 8 -142 10 -16 2 -66 6 -111 9
-44 4 -92 8 -105 11 -13 2 -60 6 -104 10 -44 4 -89 8 -100 10 -11 2 -42 7 -70
11 -27 4 -59 8 -70 9 -11 2 -58 10 -105 18 -432 81 -712 204 -964 422 -109 94
-149 137 -202 218 -192 289 -305 708 -339 1252 -16 267 -18 281 -37 319 -17
34 -19 51 -14 151 4 62 8 121 10 132 2 11 7 44 10 74 3 30 8 63 10 74 2 11 9
54 16 95 60 372 229 841 442 1230 185 336 463 734 698 1000 14 16 47 54 74 85
89 102 178 187 441 421 151 133 196 171 365 303 85 67 175 141 199 164 47 45
82 110 76 142 -2 11 -4 23 -4 27 -1 4 -14 14 -30 22 -36 19 -154 15 -233 -8
-31 -10 -70 -19 -85 -22 -117 -21 -905 -307 -1243 -451 -187 -80 -214 -92
-385 -173 -60 -29 -119 -56 -130 -61 -11 -5 -78 -40 -150 -77 -71 -37 -215
-112 -320 -166 -322 -167 -382 -200 -518 -289 -60 -39 -160 -109 -222 -156
-63 -47 -169 -126 -236 -176 -250 -185 -448 -360 -669 -592 -438 -460 -748
-971 -939 -1549 -45 -137 -78 -246 -86 -284 -2 -8 -14 -60 -28 -115 -14 -55
-28 -116 -31 -135 -3 -19 -12 -71 -20 -115 -17 -89 -22 -119 -31 -185 -3 -25
-8 -56 -10 -70 -2 -14 -7 -56 -10 -95 -4 -38 -9 -83 -11 -100 -25 -183 -24
-796 1 -1020 3 -22 10 -85 15 -140 6 -55 13 -111 15 -125 2 -14 7 -45 10 -70
3 -25 15 -94 25 -155 11 -60 22 -123 25 -140 21 -122 121 -523 167 -665 38
-120 68 -209 78 -235 5 -11 27 -72 50 -135 156 -426 393 -885 665 -1290 63
-93 142 -222 175 -286 34 -64 83 -152 111 -196 27 -44 49 -83 49 -88 0 -5 3
-10 8 -12 4 -1 24 -30 46 -62 21 -33 43 -64 48 -70 5 -6 31 -41 57 -78 196
-272 546 -622 815 -813 16 -11 33 -25 40 -30 28 -26 213 -149 331 -220 419
-252 880 -440 1387 -564 89 -22 183 -43 208 -46 24 -4 47 -8 51 -11 3 -2 24
-6 45 -9 21 -2 50 -7 64 -10 73 -16 360 -51 510 -62 196 -15 827 -7 900 12 8
2 46 6 83 10 37 3 76 8 86 10 10 2 42 6 72 10 30 4 99 16 154 27 126 25 133
26 153 32 9 3 31 8 47 10 106 18 442 127 650 211 103 41 398 185 495 240 36
21 81 46 100 57 19 11 54 33 78 49 24 16 45 29 47 29 9 0 265 177 360 248 85
64 259 204 275 222 3 3 39 34 80 70 113 97 356 335 470 459 290 316 493 569
674 841 53 80 101 150 106 157 6 7 10 15 10 19 0 3 10 20 23 37 12 18 27 41
33 52 6 11 40 72 76 135 36 63 100 183 143 265 42 83 84 159 94 171 9 12 50
63 92 115 358 442 639 1057 783 1711 14 62 28 127 31 143 30 176 37 220 50
320 3 28 8 64 10 81 4 28 9 89 21 239 13 173 4 484 -21 710 -3 22 -7 67 -10
99 -3 33 -8 62 -9 65 -2 3 -7 38 -11 76 -3 39 -8 79 -11 90 -7 33 -14 78 -19
120 -3 22 -10 65 -16 95 -6 30 -12 64 -13 75 -2 11 -9 48 -15 82 -7 35 -14 75
-17 90 -13 79 -74 350 -116 518 -16 66 -31 128 -33 138 -2 10 -7 27 -10 37 -3
10 -8 27 -10 37 -28 127 -178 617 -194 637 -5 6 -23 63 -40 126 -17 63 -40
147 -52 185 -11 39 -23 79 -26 90 -17 63 -133 389 -179 504 -178 443 -408 882
-660 1261 -68 102 -130 194 -138 205 -13 19 -8 27 70 120 228 268 393 543 503
840 83 225 180 559 210 728 36 200 36 551 0 722 -32 152 -85 330 -138 463
l-21 52 51 63 c99 123 172 284 259 572 27 90 51 174 54 187 3 13 16 77 31 143
14 66 28 132 30 147 2 15 6 35 9 45 2 10 7 41 11 68 3 28 10 84 15 125 17 138
22 214 22 345 -1 200 -14 371 -47 625 -12 93 -16 117 -19 135 -2 11 -9 54 -16
95 -33 202 -88 397 -140 500 -28 56 -101 140 -121 140 -6 0 -35 12 -65 26 -95
45 -159 38 -339 -36 -374 -154 -520 -227 -850 -423 -122 -73 -336 -215 -390
-259 -114 -95 -228 -211 -294 -298 -14 -19 -28 -37 -32 -40 -3 -3 -24 -32 -46
-66 -65 -96 -128 -221 -163 -321 l-33 -93 -71 -1 c-39 -1 -136 0 -216 1 -320
6 -679 5 -752 -2 -74 -7 -77 -6 -83 15 -57 202 -211 494 -353 672 -128 160
-320 343 -482 460 -30 22 -57 42 -60 45 -5 5 -98 70 -310 215 -108 74 -232
143 -308 172 -71 26 -176 38 -229 24z"/>
</g>
</svg>
